<svg id="Layer_5" data-name="Layer 5" xmlns="http://www.w3.org/2000/svg" viewBox="0 0 97.06 64.25"><defs><style>.cls-1{fill:#4d362d;}</style></defs><circle class="cls-1" cx="50.25" cy="31.94" r="19.5"/><path class="cls-1" d="M555.25,516.67a31,31,0,1,0,31,31A31,31,0,0,0,555.25,516.67ZM555.5,570A22.5,22.5,0,1,1,578,547.5,22.5,22.5,0,0,1,555.5,570Z" transform="translate(-505.25 -515.56)"/><path class="cls-1" d="M594.68,576.69c.83,4.14,6.77,4.17,7.46,0,.83-5-1.65-20.73-1.65-26.53s.16-31.16,0-32.32c-.83-5.81-5.81.82-7.46,5-2.25,5.61-2.49,21.55,0,24,1.65,1.65,2.48.71,2.48,3.31C595.51,561.77,593.69,571.74,594.68,576.69Z" transform="translate(-505.25 -515.56)"/><path class="cls-1" d="M514.91,550.1c.34,5.57,2.48,21.55,1.65,26.52-.69,4.17-6.63,4.15-7.46,0-1-4.94.52-21.1.83-26.52s.46-8.7,0-10.43c-.53-2-4.68-4-4.68-9v-14a1,1,0,0,1,1-1h0a1,1,0,0,1,1,1v11a1,1,0,0,0,1,1h0a1,1,0,0,0,1-1v-11a1,1,0,0,1,1-1h0a1,1,0,0,1,1,1v11a1,1,0,0,0,1,1h0a1,1,0,0,0,1-1v-11a1,1,0,0,1,1-1h0a1,1,0,0,1,1,1v11a1,1,0,0,0,1,1h0a1,1,0,0,0,1-1v-11a1,1,0,0,1,1-1h0a1,1,0,0,1,1,1v14c0,5-4.39,6.85-5,9C513.77,541.38,514.56,544.52,514.91,550.1Z" transform="translate(-505.25 -515.56)"/></svg>