<svg id="Layer_3" data-name="Layer 3" xmlns="http://www.w3.org/2000/svg" viewBox="0 0 73.86 59.7"><defs><style>.cls-1{fill:#4d362d;}</style></defs><path class="cls-1" d="M563.61,522.85V529a24.74,24.74,0,0,0-19.94,19.13H523.22a7.64,7.64,0,0,1-7.61-7.62V522.85a7.63,7.63,0,0,1,7.61-7.61H556A7.64,7.64,0,0,1,563.61,522.85Z" transform="translate(-515.61 -515.24)"/><path class="cls-1" d="M567.86,531.73a21.61,21.61,0,1,0,21.61,21.61A21.61,21.61,0,0,0,567.86,531.73Zm11.82,23.72h-12a2,2,0,0,1-2-2v-12a2,2,0,0,1,3.41-1.41,2,2,0,0,1,.59,1.41v10h10a2,2,0,1,1,0,4Z" transform="translate(-515.61 -515.24)"/></svg>