<svg id="Layer_4" data-name="Layer 4" xmlns="http://www.w3.org/2000/svg" viewBox="0 0 76 52"><defs><style>.cls-1{fill:#4d362d;}</style></defs><path class="cls-1" d="M584.5,520.67H523.72a7.63,7.63,0,0,0-7.61,7.61v36.78a7.64,7.64,0,0,0,7.61,7.61H584.5a7.63,7.63,0,0,0,7.61-7.61V528.28A7.63,7.63,0,0,0,584.5,520.67Zm-58.11,12.11a3.12,3.12,0,0,1,3.11-3.11h7.19a3.12,3.12,0,0,1,3.12,3.11v5.78a3.12,3.12,0,0,1-3.12,3.11H529.5a3.12,3.12,0,0,1-3.11-3.11Zm26,31.63A2,2,0,0,1,551,565H524a2,2,0,0,1-2-2,2,2,0,0,1,2-2h27a2,2,0,0,1,2,2A2,2,0,0,1,552.41,564.41Zm34-11A2,2,0,0,1,585,554H524a2,2,0,0,1-2-2,2,2,0,0,1,2-2h61a2,2,0,0,1,2,2A2,2,0,0,1,586.41,553.41Z" transform="translate(-516.11 -520.67)"/></svg>